<?xml version="1.0" standalone="no"?>
<!DOCTYPE svg PUBLIC "-//W3C//DTD SVG 20010904//EN"
 "http://www.w3.org/TR/2001/REC-SVG-20010904/DTD/svg10.dtd">
<svg version="1.0" xmlns="http://www.w3.org/2000/svg"
 width="300.000000pt" height="66.000000pt" viewBox="0 0 300.000000 66.000000"
 preserveAspectRatio="xMidYMid meet">

<g transform="translate(0.000000,66.000000) scale(0.100000,-0.100000)"
fill="#e30613" stroke="none">
<path d="M127 604 c-4 -4 -7 -121 -7 -261 l0 -253 260 0 260 0 -2 258 -3 257
-251 3 c-138 1 -253 -1 -257 -4z m226 -103 c16 -28 16 -32 0 -68 -10 -21 -18
-39 -18 -40 0 -1 -19 -4 -42 -8 -37 -5 -45 -3 -67 22 -14 15 -26 31 -26 35 0
5 20 8 45 8 43 0 46 2 61 40 9 22 19 40 23 40 4 0 14 -13 24 -29z m100 -11
c14 -37 18 -40 56 -40 51 0 57 -11 22 -44 -24 -23 -33 -26 -69 -20 -37 6 -43
11 -58 49 -15 41 -15 45 2 69 11 14 22 26 25 26 3 0 13 -18 22 -40z m-174
-144 c32 -33 33 -36 21 -73 -15 -47 -17 -49 -57 -58 l-33 -7 16 44 15 43 -31
28 c-18 16 -30 30 -28 31 11 10 45 25 54 26 5 0 25 -15 43 -34z m274 23 c12
-7 24 -13 25 -15 2 -1 -10 -15 -28 -31 l-31 -28 15 -43 16 -44 -33 7 c-40 9
-42 11 -57 58 -12 37 -11 40 21 73 36 38 41 39 72 23z m-133 -115 c34 -22 40
-32 40 -60 0 -40 -2 -40 -46 -13 l-34 21 -34 -21 c-44 -28 -46 -27 -46 14 0
29 6 39 38 59 20 14 38 25 40 25 1 1 20 -11 42 -25z"/>
</g>
</svg>
